<mxfile host="app.diagrams.net" modified="2021-09-27T15:14:12.117Z" agent="5.0 (Windows NT 10.0; Win64; x64) AppleWebKit/537.36 (KHTML, like Gecko) Chrome/93.0.4577.82 Safari/537.36" etag="sfscPsXtwMsBNbNuJ_4R" version="15.2.9" type="github">
  <diagram id="7ZNdUEGf6lECBC9d-Opo" name="Page-1">
    <mxGraphModel dx="2062" dy="1160" grid="0" gridSize="10" guides="1" tooltips="1" connect="1" arrows="1" fold="1" page="1" pageScale="1" pageWidth="1654" pageHeight="1169" math="0" shadow="0">
      <root>
        <mxCell id="0" />
        <mxCell id="1" parent="0" />
        <mxCell id="AwDByRDvhMyZL5y5RV4b-1" value="" style="shape=flexArrow;endArrow=classic;startArrow=classic;html=1;fillColor=#d5e8d4;strokeColor=#82b366;" edge="1" parent="1">
          <mxGeometry width="100" height="100" relative="1" as="geometry">
            <mxPoint x="417" y="179" as="sourcePoint" />
            <mxPoint x="794" y="179" as="targetPoint" />
          </mxGeometry>
        </mxCell>
        <mxCell id="AwDByRDvhMyZL5y5RV4b-2" value="" style="shape=flexArrow;endArrow=classic;html=1;fillColor=#f5f5f5;strokeColor=#666666;" edge="1" parent="1">
          <mxGeometry width="50" height="50" relative="1" as="geometry">
            <mxPoint x="363" y="361" as="sourcePoint" />
            <mxPoint x="1209" y="361" as="targetPoint" />
          </mxGeometry>
        </mxCell>
        <mxCell id="AwDByRDvhMyZL5y5RV4b-3" value="" style="shape=flexArrow;endArrow=classic;startArrow=classic;html=1;fillColor=#ffe6cc;strokeColor=#d79b00;" edge="1" parent="1">
          <mxGeometry width="100" height="100" relative="1" as="geometry">
            <mxPoint x="415" y="239" as="sourcePoint" />
            <mxPoint x="596" y="239" as="targetPoint" />
          </mxGeometry>
        </mxCell>
        <mxCell id="AwDByRDvhMyZL5y5RV4b-4" value="" style="shape=flexArrow;endArrow=classic;startArrow=classic;html=1;fillColor=#dae8fc;strokeColor=#6c8ebf;" edge="1" parent="1">
          <mxGeometry width="100" height="100" relative="1" as="geometry">
            <mxPoint x="619" y="307" as="sourcePoint" />
            <mxPoint x="767" y="307" as="targetPoint" />
          </mxGeometry>
        </mxCell>
        <mxCell id="AwDByRDvhMyZL5y5RV4b-5" value="" style="shape=flexArrow;endArrow=classic;startArrow=classic;html=1;fillColor=#dae8fc;strokeColor=#6c8ebf;" edge="1" parent="1">
          <mxGeometry width="100" height="100" relative="1" as="geometry">
            <mxPoint x="807" y="308" as="sourcePoint" />
            <mxPoint x="955" y="308" as="targetPoint" />
          </mxGeometry>
        </mxCell>
        <mxCell id="AwDByRDvhMyZL5y5RV4b-6" value="&lt;font style=&quot;font-size: 24px&quot;&gt;Thread1&lt;/font&gt;" style="text;html=1;strokeColor=none;fillColor=none;align=center;verticalAlign=middle;whiteSpace=wrap;rounded=0;" vertex="1" parent="1">
          <mxGeometry x="181" y="159" width="84" height="38" as="geometry" />
        </mxCell>
        <mxCell id="AwDByRDvhMyZL5y5RV4b-7" value="&lt;font style=&quot;font-size: 24px&quot;&gt;Thread2&lt;/font&gt;" style="text;html=1;strokeColor=none;fillColor=none;align=center;verticalAlign=middle;whiteSpace=wrap;rounded=0;" vertex="1" parent="1">
          <mxGeometry x="181" y="226" width="84" height="38" as="geometry" />
        </mxCell>
        <mxCell id="AwDByRDvhMyZL5y5RV4b-8" value="&lt;font style=&quot;font-size: 24px&quot;&gt;Thread3&lt;/font&gt;" style="text;html=1;strokeColor=none;fillColor=none;align=center;verticalAlign=middle;whiteSpace=wrap;rounded=0;" vertex="1" parent="1">
          <mxGeometry x="181" y="284" width="84" height="38" as="geometry" />
        </mxCell>
        <mxCell id="AwDByRDvhMyZL5y5RV4b-9" value="&lt;font style=&quot;font-size: 24px&quot;&gt;Time&lt;/font&gt;" style="text;html=1;strokeColor=none;fillColor=none;align=center;verticalAlign=middle;whiteSpace=wrap;rounded=0;" vertex="1" parent="1">
          <mxGeometry x="181" y="342" width="84" height="38" as="geometry" />
        </mxCell>
        <mxCell id="AwDByRDvhMyZL5y5RV4b-10" value="" style="endArrow=none;html=1;fillColor=#f8cecc;strokeColor=#FF0000;strokeWidth=3;" edge="1" parent="1">
          <mxGeometry width="50" height="50" relative="1" as="geometry">
            <mxPoint x="554" y="260" as="sourcePoint" />
            <mxPoint x="554" y="223" as="targetPoint" />
          </mxGeometry>
        </mxCell>
        <mxCell id="AwDByRDvhMyZL5y5RV4b-11" value="" style="endArrow=none;html=1;fillColor=#f8cecc;strokeColor=#FF0000;strokeWidth=3;" edge="1" parent="1">
          <mxGeometry width="50" height="50" relative="1" as="geometry">
            <mxPoint x="509" y="202" as="sourcePoint" />
            <mxPoint x="509" y="165" as="targetPoint" />
          </mxGeometry>
        </mxCell>
        <mxCell id="AwDByRDvhMyZL5y5RV4b-12" value="" style="endArrow=none;html=1;fillColor=#f8cecc;strokeColor=#FF0000;strokeWidth=3;" edge="1" parent="1">
          <mxGeometry width="50" height="50" relative="1" as="geometry">
            <mxPoint x="722" y="326" as="sourcePoint" />
            <mxPoint x="722" y="289" as="targetPoint" />
          </mxGeometry>
        </mxCell>
        <mxCell id="AwDByRDvhMyZL5y5RV4b-14" value="" style="endArrow=none;html=1;fillColor=#f8cecc;strokeColor=#FF0000;strokeWidth=3;" edge="1" parent="1">
          <mxGeometry width="50" height="50" relative="1" as="geometry">
            <mxPoint x="912" y="327" as="sourcePoint" />
            <mxPoint x="912" y="290" as="targetPoint" />
          </mxGeometry>
        </mxCell>
        <mxCell id="AwDByRDvhMyZL5y5RV4b-15" value="&lt;font style=&quot;font-size: 20px&quot;&gt;enq(1)&lt;/font&gt;" style="text;html=1;strokeColor=none;fillColor=none;align=center;verticalAlign=middle;whiteSpace=wrap;rounded=0;" vertex="1" parent="1">
          <mxGeometry x="484" y="120" width="76" height="34" as="geometry" />
        </mxCell>
        <mxCell id="AwDByRDvhMyZL5y5RV4b-16" value="&lt;font style=&quot;font-size: 20px&quot;&gt;enq(2)&lt;/font&gt;" style="text;html=1;strokeColor=none;fillColor=none;align=center;verticalAlign=middle;whiteSpace=wrap;rounded=0;" vertex="1" parent="1">
          <mxGeometry x="522" y="188" width="76" height="34" as="geometry" />
        </mxCell>
        <mxCell id="AwDByRDvhMyZL5y5RV4b-17" value="&lt;font style=&quot;font-size: 20px&quot;&gt;deq(2)&lt;/font&gt;" style="text;html=1;strokeColor=none;fillColor=none;align=center;verticalAlign=middle;whiteSpace=wrap;rounded=0;" vertex="1" parent="1">
          <mxGeometry x="682" y="250" width="76" height="34" as="geometry" />
        </mxCell>
        <mxCell id="AwDByRDvhMyZL5y5RV4b-18" value="&lt;font style=&quot;font-size: 20px&quot;&gt;deq(1)&lt;/font&gt;" style="text;html=1;strokeColor=none;fillColor=none;align=center;verticalAlign=middle;whiteSpace=wrap;rounded=0;" vertex="1" parent="1">
          <mxGeometry x="866" y="250" width="76" height="34" as="geometry" />
        </mxCell>
        <mxCell id="AwDByRDvhMyZL5y5RV4b-19" value="" style="shape=flexArrow;endArrow=classic;startArrow=classic;html=1;fillColor=#d5e8d4;strokeColor=#82b366;" edge="1" parent="1">
          <mxGeometry width="100" height="100" relative="1" as="geometry">
            <mxPoint x="417" y="559" as="sourcePoint" />
            <mxPoint x="794" y="559" as="targetPoint" />
          </mxGeometry>
        </mxCell>
        <mxCell id="AwDByRDvhMyZL5y5RV4b-20" value="" style="shape=flexArrow;endArrow=classic;html=1;fillColor=#f5f5f5;strokeColor=#666666;" edge="1" parent="1">
          <mxGeometry width="50" height="50" relative="1" as="geometry">
            <mxPoint x="363" y="741" as="sourcePoint" />
            <mxPoint x="1209" y="741" as="targetPoint" />
          </mxGeometry>
        </mxCell>
        <mxCell id="AwDByRDvhMyZL5y5RV4b-21" value="" style="shape=flexArrow;endArrow=classic;startArrow=classic;html=1;fillColor=#ffe6cc;strokeColor=#d79b00;" edge="1" parent="1">
          <mxGeometry width="100" height="100" relative="1" as="geometry">
            <mxPoint x="415" y="619" as="sourcePoint" />
            <mxPoint x="596" y="619" as="targetPoint" />
          </mxGeometry>
        </mxCell>
        <mxCell id="AwDByRDvhMyZL5y5RV4b-22" value="" style="shape=flexArrow;endArrow=classic;startArrow=classic;html=1;fillColor=#dae8fc;strokeColor=#6c8ebf;" edge="1" parent="1">
          <mxGeometry width="100" height="100" relative="1" as="geometry">
            <mxPoint x="666" y="687" as="sourcePoint" />
            <mxPoint x="814" y="687" as="targetPoint" />
          </mxGeometry>
        </mxCell>
        <mxCell id="AwDByRDvhMyZL5y5RV4b-23" value="" style="shape=flexArrow;endArrow=classic;startArrow=classic;html=1;fillColor=#dae8fc;strokeColor=#6c8ebf;" edge="1" parent="1">
          <mxGeometry width="100" height="100" relative="1" as="geometry">
            <mxPoint x="854" y="688" as="sourcePoint" />
            <mxPoint x="1002" y="688" as="targetPoint" />
          </mxGeometry>
        </mxCell>
        <mxCell id="AwDByRDvhMyZL5y5RV4b-24" value="&lt;font style=&quot;font-size: 24px&quot;&gt;Thread1&lt;/font&gt;" style="text;html=1;strokeColor=none;fillColor=none;align=center;verticalAlign=middle;whiteSpace=wrap;rounded=0;" vertex="1" parent="1">
          <mxGeometry x="181" y="539" width="84" height="38" as="geometry" />
        </mxCell>
        <mxCell id="AwDByRDvhMyZL5y5RV4b-25" value="&lt;font style=&quot;font-size: 24px&quot;&gt;Thread2&lt;/font&gt;" style="text;html=1;strokeColor=none;fillColor=none;align=center;verticalAlign=middle;whiteSpace=wrap;rounded=0;" vertex="1" parent="1">
          <mxGeometry x="181" y="606" width="84" height="38" as="geometry" />
        </mxCell>
        <mxCell id="AwDByRDvhMyZL5y5RV4b-26" value="&lt;font style=&quot;font-size: 24px&quot;&gt;Thread3&lt;/font&gt;" style="text;html=1;strokeColor=none;fillColor=none;align=center;verticalAlign=middle;whiteSpace=wrap;rounded=0;" vertex="1" parent="1">
          <mxGeometry x="181" y="664" width="84" height="38" as="geometry" />
        </mxCell>
        <mxCell id="AwDByRDvhMyZL5y5RV4b-27" value="&lt;font style=&quot;font-size: 24px&quot;&gt;Time&lt;/font&gt;" style="text;html=1;strokeColor=none;fillColor=none;align=center;verticalAlign=middle;whiteSpace=wrap;rounded=0;" vertex="1" parent="1">
          <mxGeometry x="181" y="722" width="84" height="38" as="geometry" />
        </mxCell>
        <mxCell id="AwDByRDvhMyZL5y5RV4b-28" value="" style="endArrow=none;html=1;fillColor=#f8cecc;strokeColor=#FF0000;strokeWidth=3;" edge="1" parent="1">
          <mxGeometry width="50" height="50" relative="1" as="geometry">
            <mxPoint x="484" y="639" as="sourcePoint" />
            <mxPoint x="484" y="602" as="targetPoint" />
          </mxGeometry>
        </mxCell>
        <mxCell id="AwDByRDvhMyZL5y5RV4b-29" value="" style="endArrow=none;html=1;fillColor=#f8cecc;strokeColor=#FF0000;strokeWidth=3;" edge="1" parent="1">
          <mxGeometry width="50" height="50" relative="1" as="geometry">
            <mxPoint x="615" y="577" as="sourcePoint" />
            <mxPoint x="615" y="540" as="targetPoint" />
          </mxGeometry>
        </mxCell>
        <mxCell id="AwDByRDvhMyZL5y5RV4b-30" value="" style="endArrow=none;html=1;fillColor=#f8cecc;strokeColor=#FF0000;strokeWidth=3;" edge="1" parent="1">
          <mxGeometry width="50" height="50" relative="1" as="geometry">
            <mxPoint x="769" y="706" as="sourcePoint" />
            <mxPoint x="769" y="669" as="targetPoint" />
          </mxGeometry>
        </mxCell>
        <mxCell id="AwDByRDvhMyZL5y5RV4b-31" value="" style="endArrow=none;html=1;fillColor=#f8cecc;strokeColor=#FF0000;strokeWidth=3;" edge="1" parent="1">
          <mxGeometry width="50" height="50" relative="1" as="geometry">
            <mxPoint x="959" y="707" as="sourcePoint" />
            <mxPoint x="959" y="670" as="targetPoint" />
          </mxGeometry>
        </mxCell>
        <mxCell id="AwDByRDvhMyZL5y5RV4b-32" value="&lt;font style=&quot;font-size: 20px&quot;&gt;enq(1)&lt;/font&gt;" style="text;html=1;strokeColor=none;fillColor=none;align=center;verticalAlign=middle;whiteSpace=wrap;rounded=0;" vertex="1" parent="1">
          <mxGeometry x="578" y="498" width="76" height="34" as="geometry" />
        </mxCell>
        <mxCell id="AwDByRDvhMyZL5y5RV4b-33" value="&lt;font style=&quot;font-size: 20px&quot;&gt;enq(2)&lt;/font&gt;" style="text;html=1;strokeColor=none;fillColor=none;align=center;verticalAlign=middle;whiteSpace=wrap;rounded=0;" vertex="1" parent="1">
          <mxGeometry x="449" y="568" width="76" height="34" as="geometry" />
        </mxCell>
        <mxCell id="AwDByRDvhMyZL5y5RV4b-34" value="&lt;font style=&quot;font-size: 20px&quot;&gt;deq(1)&lt;/font&gt;" style="text;html=1;strokeColor=none;fillColor=none;align=center;verticalAlign=middle;whiteSpace=wrap;rounded=0;" vertex="1" parent="1">
          <mxGeometry x="729" y="630" width="76" height="34" as="geometry" />
        </mxCell>
        <mxCell id="AwDByRDvhMyZL5y5RV4b-35" value="&lt;font style=&quot;font-size: 20px&quot;&gt;deq(2)&lt;/font&gt;" style="text;html=1;strokeColor=none;fillColor=none;align=center;verticalAlign=middle;whiteSpace=wrap;rounded=0;" vertex="1" parent="1">
          <mxGeometry x="913" y="630" width="76" height="34" as="geometry" />
        </mxCell>
      </root>
    </mxGraphModel>
  </diagram>
</mxfile>
